<svg width="603" height="420" viewBox="0 0 603 420" fill="none" xmlns="http://www.w3.org/2000/svg">
<path d="M569.674 420C591.584 420 607.486 395.477 601.86 370.473C592.879 330.546 567.151 277.021 495.235 251.633C399.721 217.914 405.076 82 328.786 82C252.496 82 252.098 151.023 229.35 158.045C206.602 165.066 130.357 144.216 113.328 205.747C81.844 319.486 39.5845 264.654 6.78942 352.243C4.71174 357.793 2.96619 363.484 1.50083 369.09C-5.10713 394.383 10.9349 420 33.3515 420H569.674Z" fill="#F3F5FD"/>
<path d="M490.047 0H81.5557V276.283H490.047V0Z" fill="#DEE8F5"/>
<path d="M133.431 213.23C133.431 213.23 171.709 109.707 229.576 114.274C287.443 118.84 305.557 168.319 358.851 168.319C412.146 168.319 436.501 69.1516 436.501 69.1516" stroke="white" stroke-width="3" stroke-miterlimit="10"/>
<path d="M490.047 0H81.5557V22.7588H490.047V0Z" fill="#27AE60"/>
<path d="M476.366 17.0899C479.743 17.0899 482.48 14.5334 482.48 11.3798C482.48 8.22618 479.743 5.66968 476.366 5.66968C472.989 5.66968 470.252 8.22618 470.252 11.3798C470.252 14.5334 472.989 17.0899 476.366 17.0899Z" fill="white"/>
<path d="M440.559 63.0889H138.203V204.64H440.559V63.0889Z" stroke="white" stroke-width="3" stroke-miterlimit="10"/>
<path d="M143.15 57.8389H131.826V68.4145H143.15V57.8389Z" fill="white"/>
<path d="M446.22 57.8389H434.896V68.4145H446.22V57.8389Z" fill="white"/>
<path d="M143.15 199.352H131.826V209.928H143.15V199.352Z" fill="white"/>
<path d="M303.314 57.8389H291.99V68.4145H303.314V57.8389Z" fill="white"/>
<path d="M303.314 199.352H291.99V209.928H303.314V199.352Z" fill="white"/>
<path d="M446.22 199.352H434.896V209.928H446.22V199.352Z" fill="white"/>
<path d="M353.131 138.262L341.303 140.164L348.907 181.43L360.735 179.529L353.131 138.262Z" fill="#F3F5FD"/>
<path d="M351.966 139.98L343.015 141.419L344.555 149.779L353.506 148.34L351.966 139.98Z" fill="#DEE8F5"/>
<path d="M353.808 149.976L344.856 151.415L346.397 159.775L355.348 158.336L353.808 149.976Z" fill="#27AE60"/>
<path d="M355.65 159.972L346.698 161.411L348.239 169.771L357.19 168.332L355.65 159.972Z" fill="#27AE60"/>
<path d="M357.491 169.967L348.54 171.406L350.081 179.766L359.032 178.327L357.491 169.967Z" fill="#0CBC8B"/>
<path d="M336.077 142.238L325.869 148.134L349.452 183.747L359.659 177.851L336.077 142.238Z" fill="#F3F5FD"/>
<path d="M335.684 144.238L327.959 148.7L332.737 155.914L340.461 151.452L335.684 144.238Z" fill="#DEE8F5"/>
<path d="M341.397 152.864L333.672 157.326L338.449 164.541L346.174 160.079L341.397 152.864Z" fill="#27AE60"/>
<path d="M347.109 161.49L339.384 165.952L344.161 173.167L351.886 168.705L347.109 161.49Z" fill="#27AE60"/>
<path d="M352.822 170.117L345.097 174.579L349.874 181.793L357.599 177.331L352.822 170.117Z" fill="#0CBC8B"/>
<path d="M389.947 413.064L403.663 411.54C403.045 406.692 402.347 400.868 402.3 399.914C402.3 399.975 402.3 400.025 402.3 400.064H388.488C388.491 400.451 388.491 401.628 389.947 413.064Z" fill="#E98862"/>
<path d="M444.981 414.606L458.792 414.563C458.792 414.563 458.746 401.244 458.746 400.067H444.935C444.937 401.247 444.981 414.606 444.981 414.606Z" fill="#E98862"/>
<path d="M409.184 408.99L384.853 408.603C385.996 381.556 386.066 353.186 386.422 326.074C391.171 296.852 393.672 264.762 399.533 235.749L399.709 235.797L400.222 232.523L450.259 229.636L452.206 260.165H452.052C454.665 304.019 459.381 365.786 462.353 408.254L438.105 410.168C433.736 368.53 428.29 307.86 424.131 264.118C419.356 285.414 414.792 307.465 410.638 328.579C409.808 355.011 409.107 382.64 409.184 408.99Z" fill="#262626"/>
<path d="M428.19 419.598C427.819 419.596 427.451 419.523 427.112 419.383C426.772 419.243 426.467 419.039 426.215 418.784C425.963 418.528 425.771 418.228 425.649 417.9C425.528 417.572 425.48 417.224 425.509 416.878C425.549 416.399 425.735 415.94 426.045 415.556C426.355 415.172 426.776 414.879 427.258 414.711L443.334 409.682C443.645 409.585 443.975 409.553 444.301 409.587C444.628 409.621 444.942 409.72 445.223 409.878C447.433 411.31 450.077 412.042 452.765 411.967C454.859 411.828 456.87 411.142 458.567 409.987C458.716 409.873 458.897 409.801 459.088 409.779C459.279 409.757 459.474 409.787 459.648 409.864C459.822 409.941 459.969 410.063 460.072 410.215C460.175 410.368 460.229 410.544 460.229 410.724V418.062C460.229 418.279 460.183 418.493 460.094 418.693C460.005 418.893 459.875 419.075 459.71 419.228C459.546 419.38 459.351 419.501 459.136 419.584C458.922 419.666 458.692 419.708 458.46 419.707L428.19 419.598Z" fill="#27AE60"/>
<path d="M373.116 419.598C372.744 419.596 372.377 419.523 372.037 419.383C371.698 419.243 371.392 419.039 371.141 418.784C370.889 418.528 370.697 418.228 370.575 417.9C370.454 417.572 370.406 417.224 370.435 416.878C370.475 416.399 370.661 415.94 370.97 415.556C371.28 415.172 371.701 414.879 372.183 414.711L388.259 409.682C388.571 409.585 388.901 409.553 389.227 409.587C389.553 409.621 389.867 409.72 390.148 409.878C392.358 411.31 395.002 412.042 397.691 411.967C399.785 411.828 401.795 411.142 403.492 409.987C403.641 409.873 403.822 409.8 404.013 409.779C404.205 409.757 404.399 409.786 404.573 409.863C404.748 409.941 404.895 410.063 404.998 410.215C405.101 410.367 405.155 410.544 405.154 410.724V418.062C405.154 418.279 405.109 418.493 405.02 418.693C404.931 418.893 404.8 419.075 404.636 419.228C404.472 419.38 404.277 419.501 404.062 419.584C403.848 419.666 403.618 419.708 403.386 419.707L373.116 419.598Z" fill="#27AE60"/>
<path d="M464.984 251.772C464.984 253.603 463.949 259.723 465.614 260.159C466.612 260.422 467.79 255.859 467.79 255.859" fill="#E98862"/>
<path d="M472.842 250.811C472.842 250.811 478.277 263.166 472.078 270.264C471.92 270.445 471.707 270.577 471.467 270.643C471.228 270.709 470.973 270.705 470.735 270.634C470.497 270.562 470.288 270.425 470.135 270.241C469.982 270.056 469.892 269.833 469.877 269.6C469.576 264.814 468.543 254.981 465.164 256.132V248.415" fill="#E98862"/>
<path d="M351.435 186.863C351.435 186.863 343.678 178.036 342.712 176.157C339.308 169.542 341.008 166.513 342.425 165.545C344.098 164.4 351.854 174.133 351.854 174.133C351.854 174.133 351.181 170.632 352.634 170.402C353.23 170.308 353.703 170.855 354.637 173.333C355.701 176.159 357.828 180.407 357.828 180.407L351.435 186.863Z" fill="#E98862"/>
<path d="M434.463 166.761C434.463 166.761 429.377 164.243 430.513 151.309L420.005 149.489C420.005 149.489 421.186 161.085 415.87 164.767L434.463 166.761Z" fill="#E98862"/>
<path d="M436.475 146.294C435.747 150.217 433.454 153.934 429.748 155.2C425.348 156.705 422.089 156.807 417.017 156.807C410.094 156.807 410.323 150.064 410.129 143.27C409.931 136.451 410.514 129.131 413.25 126.754C418.709 122.009 434.739 125.013 436.689 132.95C437.697 137.055 437.167 142.558 436.475 146.294Z" fill="#E98862"/>
<path d="M405.329 123.929C405.329 120.684 409.653 115.368 421.187 122.7L421.199 122.707C424.195 122.629 427.189 122.935 430.097 123.616C435.372 125.09 441.986 129.22 440.291 139.233C439.28 145.198 437.476 149.095 435.564 151.948C434.431 153.73 432.91 155.269 431.1 156.466C429.692 157.313 426.74 157.284 424.877 157.307C421.113 157.354 419.596 157.104 419.069 156.812C415.046 154.58 415.675 143.429 416.313 136.865C416.419 135.785 416.206 133.99 413.238 133.99C405.668 133.986 405.329 126.951 405.329 123.929Z" fill="#0F1011"/>
<path d="M412.5 144.558C412.429 145.547 412.777 146.523 413.47 147.275C414.163 148.026 415.144 148.492 416.203 148.573C417.261 148.654 418.31 148.342 419.124 147.706C419.939 147.069 420.452 146.159 420.553 145.172C420.606 144.677 420.551 144.177 420.392 143.701C420.234 143.226 419.974 142.786 419.629 142.406C419.284 142.026 418.861 141.715 418.385 141.492C417.909 141.268 417.389 141.136 416.857 141.104C413.978 141.018 412.683 142.481 412.5 144.558Z" fill="#E98862"/>
<path d="M358.276 177.498L380.729 201.09L398.289 171.732C399.952 167.094 403.738 163.986 411.459 163.678C414.1 163.572 426.985 163.555 436.419 163.555C442.757 163.555 447.96 165.371 450.964 168.177C452.478 169.57 453.611 171.283 454.267 173.171L454.357 173.14L469.454 211.478C469.623 211.908 469.744 212.353 469.817 212.806L475.91 251.144L461.724 253.11L455.739 215.453L449.642 199.97C449.006 202.35 448.659 204.789 448.607 207.241C448.607 220.14 454.855 225.925 454.395 232.548C453.671 242.956 399.523 240.497 396.764 234.585C393.924 228.488 399.689 224.731 399.436 204.788C399.409 202.617 399.23 200.347 398.983 198.035L388.328 215.848C387.77 216.781 386.981 217.575 386.027 218.165C385.074 218.755 383.982 219.123 382.845 219.239C382.587 219.265 382.328 219.279 382.068 219.279C381.055 219.279 380.054 219.078 379.131 218.691C378.207 218.304 377.381 217.738 376.709 217.031L347.188 184.783L358.276 177.498Z" fill="#27AE60"/>
<path d="M511.507 401.813H502.104V420H511.507V401.813Z" fill="#27AE60"/>
<path d="M570.543 401.813H561.139V420H570.543V401.813Z" fill="#27AE60"/>
<path d="M579.163 324.77H493.484V414.134H579.163V324.77Z" fill="#27AE60"/>
<path d="M556.408 324.77H470.729V414.134H556.408V324.77Z" fill="#DEE8F5"/>
<path d="M488.753 401.814H479.35V420H488.753V401.814Z" fill="#DEE8F5"/>
<path d="M547.788 401.814H538.384V420H547.788V401.814Z" fill="#DEE8F5"/>
<g opacity="0.53">
<path d="M551.798 330.295H475.338V352.96H551.798V330.295Z" fill="#F3F5FD"/>
</g>
<g opacity="0.53">
<path d="M551.798 358.508H475.338V381.173H551.798V358.508Z" fill="#F3F5FD"/>
</g>
<g opacity="0.53">
<path d="M551.798 386.72H475.338V409.386H551.798V386.72Z" fill="#F3F5FD"/>
</g>
<path d="M513.569 344.799C515.444 344.799 516.964 343.379 516.964 341.627C516.964 339.876 515.444 338.456 513.569 338.456C511.693 338.456 510.173 339.876 510.173 341.627C510.173 343.379 511.693 344.799 513.569 344.799Z" fill="white"/>
<path d="M513.569 373.012C515.444 373.012 516.964 371.592 516.964 369.84C516.964 368.089 515.444 366.669 513.569 366.669C511.693 366.669 510.173 368.089 510.173 369.84C510.173 371.592 511.693 373.012 513.569 373.012Z" fill="white"/>
<path d="M513.569 401.224C515.444 401.224 516.964 399.805 516.964 398.053C516.964 396.301 515.444 394.882 513.569 394.882C511.693 394.882 510.173 396.301 510.173 398.053C510.173 399.805 511.693 401.224 513.569 401.224Z" fill="white"/>
<path d="M511.603 290.997L505.878 292.261L513.055 320.613L518.78 319.349L511.603 290.997Z" fill="#F0F6FF"/>
<path d="M517.902 288.799L512.986 313.685L516.165 314.233L521.08 289.347L517.902 288.799Z" fill="#27AE60"/>
<path d="M517.903 288.791L517.344 291.536L520.519 292.101L521.078 289.356L517.903 288.791Z" fill="#DEE8F5"/>
<path d="M508.062 295.118L506.297 295.768L516.596 320.184L518.361 319.535L508.062 295.118Z" fill="#0CBC8B"/>
<path d="M521.331 305.806H505.806V324.338H521.331V305.806Z" fill="#27AE60"/>
<path d="M173.878 170.874C173.878 170.874 181.469 165.242 182.005 163.219C182.542 161.197 177.197 157.218 177.197 157.218L172.966 158.144C172.966 158.144 174.132 154.643 172.68 154.413C172.083 154.319 171.61 154.865 170.676 157.344C169.612 160.17 167.485 164.417 167.485 164.417L173.878 170.874Z" fill="#E98862"/>
<path d="M173.635 157.41C174.322 156.927 175.043 156.485 175.791 156.089C176.552 155.669 177.354 155.315 178.185 155.032C178.644 154.873 179.119 154.755 179.603 154.679C179.875 154.638 180.15 154.617 180.426 154.617L181.065 154.647C181.919 154.703 182.766 154.835 183.594 155.04C183.821 155.097 184.019 155.227 184.154 155.407C184.288 155.588 184.349 155.807 184.327 156.025C184.305 156.244 184.201 156.448 184.033 156.602C183.865 156.756 183.645 156.849 183.41 156.865L183.354 156.869L181.062 157.026L180.493 157.069C180.367 157.086 180.242 157.111 180.119 157.143C179.815 157.224 179.52 157.33 179.236 157.46C178.583 157.76 177.951 158.099 177.344 158.474C176.724 158.857 176.073 159.279 175.502 159.681L175.476 159.7C175.151 159.921 174.746 160.015 174.348 159.959C173.95 159.904 173.591 159.705 173.349 159.405C173.107 159.104 173 158.727 173.053 158.355C173.106 157.982 173.314 157.644 173.631 157.413L173.635 157.41Z" fill="#E98862"/>
<path d="M190.257 161.385L188.947 161.53L167.401 154.835C167.369 154.825 167.339 154.809 167.314 154.787C167.289 154.766 167.268 154.74 167.254 154.712C167.24 154.683 167.232 154.652 167.232 154.62C167.231 154.588 167.237 154.557 167.25 154.528L167.717 153.465C167.741 153.41 167.786 153.366 167.844 153.342C167.901 153.317 167.966 153.314 168.026 153.332L189.314 159.99L190.402 160.99C190.435 161.021 190.457 161.06 190.468 161.102C190.478 161.144 190.475 161.188 190.46 161.229C190.445 161.27 190.418 161.307 190.382 161.334C190.346 161.362 190.303 161.379 190.257 161.385Z" fill="white"/>
<path d="M139.221 413.354L125.506 411.83C126.123 406.982 126.821 401.159 126.868 400.204C126.868 400.265 126.868 400.315 126.868 400.354H140.68C140.677 400.74 140.677 401.917 139.221 413.354Z" fill="#E98862"/>
<path d="M84.1868 414.895L70.375 414.854C70.375 414.854 70.4217 401.533 70.4217 400.357H84.2335C84.2335 401.538 84.1868 414.895 84.1868 414.895Z" fill="#E98862"/>
<path d="M119.985 409.278L144.316 408.891C143.304 384.958 143.132 357.583 142.86 332.813C142.785 326.673 142.289 320.543 141.374 314.463C137.459 288.22 134.906 262.128 129.635 236.036L129.46 236.085L128.945 232.811L78.9093 229.924L76.3048 260.456C76.3048 260.456 69.7876 366.075 66.8154 408.543L91.0637 410.457C95.4334 368.824 102.195 308.154 106.351 264.412C111.126 285.708 114.372 307.759 118.527 328.872C119.361 355.301 120.062 382.93 119.985 409.278Z" fill="#262626"/>
<path d="M100.977 419.884C101.348 419.883 101.715 419.81 102.055 419.67C102.395 419.53 102.7 419.326 102.952 419.07C103.203 418.815 103.396 418.514 103.517 418.186C103.639 417.859 103.687 417.511 103.658 417.165C103.618 416.686 103.432 416.227 103.122 415.843C102.812 415.459 102.391 415.166 101.909 414.997L85.8306 409.969C85.5191 409.872 85.189 409.84 84.8628 409.874C84.5367 409.908 84.2223 410.007 83.9411 410.165C81.7312 411.597 79.0877 412.329 76.3992 412.254C74.305 412.115 72.2947 411.429 70.5976 410.274C70.4485 410.16 70.2676 410.088 70.0761 410.066C69.8847 410.044 69.6905 410.073 69.5162 410.151C69.3419 410.228 69.1948 410.35 69.092 410.502C68.9892 410.655 68.9349 410.831 68.9356 411.012V418.353C68.9356 418.57 68.9814 418.784 69.0703 418.984C69.1593 419.184 69.2897 419.366 69.454 419.519C69.6183 419.672 69.8133 419.793 70.0279 419.875C70.2424 419.957 70.4722 419.999 70.7041 419.998L100.977 419.884Z" fill="#27AE60"/>
<path d="M156.048 419.884C156.42 419.883 156.787 419.81 157.127 419.67C157.467 419.53 157.772 419.326 158.023 419.071C158.275 418.815 158.468 418.514 158.589 418.187C158.711 417.859 158.758 417.511 158.729 417.165C158.689 416.686 158.504 416.227 158.194 415.843C157.884 415.459 157.463 415.166 156.981 414.997L140.905 409.969C140.593 409.872 140.263 409.84 139.937 409.874C139.611 409.908 139.297 410.007 139.016 410.165C136.806 411.597 134.162 412.329 131.473 412.254C129.379 412.115 127.369 411.429 125.672 410.274C125.523 410.16 125.342 410.088 125.151 410.066C124.959 410.044 124.765 410.074 124.591 410.151C124.417 410.228 124.269 410.35 124.167 410.502C124.064 410.655 124.009 410.831 124.01 411.012V418.353C124.01 418.57 124.056 418.784 124.145 418.984C124.233 419.184 124.364 419.366 124.528 419.519C124.693 419.672 124.888 419.793 125.102 419.875C125.317 419.957 125.546 419.999 125.778 419.998L156.048 419.884Z" fill="#27AE60"/>
<path d="M94.3555 166.095C94.3555 166.095 99.7486 163.931 99.7486 150.698L110.589 149.667C110.589 149.667 108.353 161.359 113.428 165.515L94.3555 166.095Z" fill="#E98862"/>
<g opacity="0.2">
<path d="M111.457 162.884L103.143 155.867L110.114 156.333C110.121 158.576 110.577 160.798 111.457 162.884Z" fill="black"/>
</g>
<path d="M94.1375 145.139C94.5268 149.183 96.5249 153.138 100.178 154.715C104.15 156.551 108.543 157.452 112.973 157.338C124.742 157.338 124.609 132.338 119.485 127.09C114.361 121.842 97.8022 123.65 95.1128 131.563C93.7192 135.655 93.7672 141.289 94.1375 145.139Z" fill="#E98862"/>
<path d="M111.208 143.35C111.744 143.35 112.179 142.944 112.179 142.443C112.179 141.942 111.744 141.536 111.208 141.536C110.671 141.536 110.236 141.942 110.236 142.443C110.236 142.944 110.671 143.35 111.208 143.35Z" fill="#0F1011"/>
<path d="M118.899 143.35C119.436 143.35 119.871 142.944 119.871 142.443C119.871 141.942 119.436 141.536 118.899 141.536C118.363 141.536 117.928 141.942 117.928 142.443C117.928 142.944 118.363 143.35 118.899 143.35Z" fill="#0F1011"/>
<path d="M120.785 140.646C120.904 140.648 121.019 140.607 121.106 140.531C121.192 140.455 121.244 140.35 121.249 140.239C121.255 140.128 121.214 140.02 121.135 139.937C121.056 139.854 120.946 139.803 120.827 139.795L118.262 139.569C118.202 139.563 118.142 139.569 118.085 139.586C118.027 139.602 117.974 139.629 117.928 139.665C117.882 139.7 117.844 139.744 117.816 139.794C117.788 139.843 117.77 139.897 117.765 139.953C117.759 140.009 117.765 140.065 117.783 140.119C117.801 140.172 117.829 140.222 117.868 140.265C117.906 140.308 117.953 140.344 118.006 140.37C118.059 140.396 118.117 140.412 118.176 140.417L120.741 140.643C120.754 140.645 120.77 140.646 120.785 140.646Z" fill="#0F1011"/>
<path d="M109.299 140.646C109.323 140.646 109.347 140.644 109.371 140.641L111.95 140.266C112.009 140.257 112.066 140.238 112.117 140.209C112.169 140.179 112.213 140.141 112.249 140.096C112.284 140.051 112.309 139.999 112.323 139.945C112.338 139.891 112.34 139.834 112.331 139.779C112.322 139.723 112.301 139.67 112.27 139.622C112.238 139.575 112.197 139.533 112.149 139.5C112.101 139.467 112.046 139.443 111.987 139.43C111.929 139.417 111.869 139.414 111.809 139.423L109.23 139.798C109.117 139.815 109.015 139.871 108.944 139.954C108.873 140.038 108.839 140.144 108.847 140.25C108.855 140.356 108.906 140.456 108.989 140.529C109.072 140.603 109.181 140.644 109.296 140.646H109.299Z" fill="#0F1011"/>
<path d="M111.031 149.601C111.031 149.601 114.575 150.227 117.153 149.601C117.153 149.601 116.94 151.799 114.092 151.799C111.243 151.799 111.031 149.601 111.031 149.601Z" fill="white"/>
<path d="M102.91 135.409C102.332 153.682 99.4931 155.355 99.4931 155.355C99.4931 155.355 90.2373 149.141 89.9281 138.118C89.6361 127.785 98.2488 122.356 103.809 121.634C124.94 118.889 125.681 136.708 125.681 136.708C115.076 138.406 100.632 135.602 100.632 135.602" fill="#0F1011"/>
<path d="M105.976 144.271C105.962 145.283 105.522 146.249 104.751 146.96C103.98 147.671 102.94 148.07 101.856 148.07C100.773 148.07 99.7328 147.671 98.9617 146.96C98.1906 146.249 97.7506 145.283 97.7369 144.271C97.7277 143.763 97.828 143.259 98.0318 142.788C98.2355 142.318 98.5386 141.89 98.923 141.531C99.3073 141.172 99.7651 140.889 100.269 140.699C100.773 140.509 101.313 140.415 101.856 140.424C104.79 140.558 105.976 142.146 105.976 144.271Z" fill="#E98862"/>
<path d="M86.0929 138.118C91.2803 138.118 95.4855 134.191 95.4855 129.346C95.4855 124.501 91.2803 120.574 86.0929 120.574C80.9054 120.574 76.7002 124.501 76.7002 129.346C76.7002 134.191 80.9054 138.118 86.0929 138.118Z" fill="#0F1011"/>
<g opacity="0.2">
<path d="M115.095 147.79C115.119 147.79 115.143 147.787 115.167 147.782L117.557 147.291C117.603 147.281 117.647 147.263 117.685 147.236C117.723 147.209 117.754 147.175 117.777 147.137C117.801 147.098 117.815 147.055 117.819 147.011C117.823 146.967 117.817 146.922 117.8 146.881L116.547 143.575C116.516 143.5 116.454 143.439 116.374 143.405C116.295 143.371 116.205 143.368 116.123 143.395C116.041 143.422 115.974 143.477 115.935 143.55C115.896 143.623 115.889 143.707 115.915 143.784L117.041 146.755L115.023 147.169C114.942 147.186 114.871 147.23 114.823 147.292C114.775 147.355 114.753 147.432 114.762 147.509C114.771 147.585 114.809 147.656 114.871 147.708C114.932 147.76 115.012 147.788 115.095 147.788V147.79Z" fill="black"/>
</g>
<path d="M153.71 205.415C154.084 205.415 154.458 205.388 154.828 205.333C155.898 205.172 156.914 204.782 157.797 204.195C158.68 203.607 159.406 202.837 159.918 201.944L178.694 169.201L166.278 162.991L151.864 188.125L129.531 168.285L119.824 177.815L148.855 203.603C150.165 204.766 151.903 205.415 153.71 205.415Z" fill="#27AE60"/>
<path d="M133.227 236.282C130.418 242.314 75.2048 244.821 74.4675 234.209C73.9979 227.457 80.3684 221.564 80.3684 208.405C80.3684 195.246 67.4058 178.442 77.9678 168.577C81.0327 165.715 86.3207 163.867 92.7754 163.861C93.2581 167.375 116.1 167.387 116.274 163.942C117.146 163.955 117.823 163.967 118.247 163.986C140.498 164.882 130.72 188.532 130.506 205.906C130.243 226.236 136.125 230.069 133.227 236.282Z" fill="#27AE60"/>
<path d="M116.274 163.945C116.1 167.389 114.094 172.456 107.905 172.838C99.6563 173.346 93.2581 167.377 92.7773 163.864H92.7977C100.916 163.861 111.539 163.873 116.274 163.945Z" fill="#E98862"/>
<path d="M142.213 230.55H182.027C182.606 230.551 183.167 230.361 183.612 230.014C184.057 229.667 184.357 229.185 184.46 228.653L190.231 198.769C190.285 198.491 190.272 198.204 190.195 197.931C190.117 197.657 189.976 197.403 189.781 197.186C189.587 196.968 189.344 196.794 189.069 196.674C188.795 196.554 188.495 196.492 188.192 196.492H148.379C147.799 196.492 147.238 196.681 146.793 197.028C146.348 197.375 146.048 197.857 145.945 198.39L140.174 228.273C140.121 228.552 140.133 228.838 140.211 229.111C140.288 229.385 140.429 229.639 140.624 229.857C140.818 230.074 141.061 230.248 141.336 230.368C141.61 230.488 141.91 230.55 142.213 230.55Z" fill="#262626"/>
<path d="M165.202 218.496C168.144 218.496 170.528 216.269 170.528 213.521C170.528 210.774 168.144 208.546 165.202 208.546C162.26 208.546 159.875 210.774 159.875 213.521C159.875 216.269 162.26 218.496 165.202 218.496Z" fill="white"/>
<path d="M143.588 212.321C145.612 212.321 152.377 211.326 152.862 212.928C153.152 213.89 148.11 215.027 148.11 215.027" fill="#E98862"/>
<path d="M142.525 219.899C142.525 219.899 156.183 225.14 164.032 219.162C164.232 219.01 164.378 218.804 164.45 218.573C164.523 218.342 164.52 218.096 164.441 217.867C164.361 217.637 164.21 217.436 164.006 217.288C163.802 217.141 163.555 217.054 163.297 217.04C158.007 216.748 147.141 215.75 148.41 212.494H139.877" fill="#E98862"/>
<path d="M103.142 225.375C103.216 225.375 103.29 225.375 103.365 225.375L145.506 224.175L145.06 210.525L107.684 211.589L87.9644 173.05L74.7715 178.939L96.5454 221.494C97.1408 222.656 98.0761 223.638 99.2434 224.324C100.411 225.011 101.762 225.375 103.142 225.375Z" fill="#27AE60"/>
</svg>
